# xmcd CD database file
#
# Track frame offsets:
#	150
#	2456
#	29003
#	48588
#	74237
#	99343
#	125653
#	157180
#	175547
#	201578
#	229742
#	248565
#	279208
#	296518
#	316825
#	340314
#
# Disc length: 4788 seconds
#
# Revision: 0
# Processed by: cddbd v1.5.2PL0 Copyright (c) Steve Scherf et al.
# Submitted via: CDex 1.70beta2
#
DISCID=e812b210
DTITLE=The Lisa Kelly - JB Scott 4tet - Live at Simons
DYEAR=2003
DGENRE=Jazz
TTITLE0=Intro
TTITLE1=Night and Day
TTITLE2=Lullaby of Birdland
TTITLE3=A Child is Born
TTITLE4=Caravan
TTITLE5=I've Got the World on a String
TTITLE6=So What - Moondance
TTITLE7=Dig
TTITLE8=Shiny Stockings
TTITLE9=I Can See Clearly Now
TTITLE10=Basin Street Blues
TTITLE11=Love Dance
TTITLE12=Drop Me Off In Harlem
TTITLE13=Joy Spring
TTITLE14=Frim Fram Sauce
TTITLE15=I Love Being Here With You
EXTD=YEAR: 2003
EXTT0=
EXTT1=
EXTT2=
EXTT3=
EXTT4=
EXTT5=
EXTT6=
EXTT7=
EXTT8=
EXTT9=
EXTT10=
EXTT11=
EXTT12=
EXTT13=
EXTT14=
EXTT15=
PLAYORDER=
